<?xml version="1.0" encoding="UTF-8" standalone="no"?>
<!DOCTYPE svg PUBLIC "-//W3C//DTD SVG 1.1//EN" "http://www.w3.org/Graphics/SVG/1.1/DTD/svg11.dtd">
<svg width="100%" height="100%" viewBox="0 0 20 35" version="1.1" xmlns="http://www.w3.org/2000/svg" xmlns:xlink="http://www.w3.org/1999/xlink" xml:space="preserve" xmlns:serif="http://www.serif.com/" style="fill-rule:evenodd;clip-rule:evenodd;stroke-linecap:round;stroke-linejoin:round;stroke-miterlimit:1.5;">
    <g transform="matrix(1,0,0,1,-281.14,-120.75)">
        <g transform="matrix(0.327033,0,0,0.327033,186.378,77.469)">
            <path d="M322.421,133.873L327.163,137.81L328.793,136.858L330.112,138.305L328.958,139.696L332.382,144.512L326.181,150.584L322.311,146.673L317.575,151.025L317.604,152.405L318.136,156.672L322.622,162.477L323.684,165.535C323.684,165.535 327.542,168.355 328.5,170.314C329.459,172.274 329.306,174.948 329.434,177.291C329.93,186.379 334.598,198.497 334.598,198.497C334.598,198.497 334.812,201.223 334.397,202.489C333.844,204.173 331.759,206.367 331.284,208.605C330.765,211.047 331.284,217.138 331.284,217.138L331.448,220.233L346.19,231.239L346.355,233.491C346.355,233.491 341.742,236.877 339.952,237.631C339.054,238.009 336.116,237.681 335.529,237.458C335.07,237.284 336.429,236.293 336.429,236.293L340.733,232.484L323.263,222.596L322.292,215.564L321.761,204.54L319.6,202.324L310.266,202.69L303.45,215.603L302.243,217.525L300.321,217.615C300.321,217.615 293.846,212.019 292.721,210.596C292.361,210.14 293.57,209.076 293.57,209.076L300.276,212.026L303.003,203.621C303.003,203.621 303.652,198.324 304.658,196.737C305.57,195.297 309.039,194.099 309.039,194.099L317.22,192.355L314.985,186.454L309.441,187.661C309.441,187.661 300.44,185.783 298.399,184.621C297.206,183.942 297.191,180.687 297.191,180.687L293.391,175.679L291.29,173.533L293.436,170.449L294.679,169.891L312.303,152.342L313.018,150.33L315.432,148.676L320.412,144.14L316.416,138.662L322.421,133.873ZM313.51,154.533L314.985,157.215L314.448,159.406L316.684,163.698C316.684,163.698 312.362,165.136 311.498,166.38C310.633,167.625 311.498,171.164 311.498,171.164C311.498,171.164 312.556,174.681 313.42,175.59C314.206,176.416 316.684,176.618 316.684,176.618L312.124,180.284L306.356,181.67L300.679,179.122L296.521,174.338L296.521,171.209L313.51,154.533Z" style="fill:white;stroke:white;stroke-width:3.06px;"/>
        </g>
    </g>
</svg>
