<?xml version="1.0" encoding="UTF-8" standalone="no"?>
<!DOCTYPE svg PUBLIC "-//W3C//DTD SVG 1.1//EN" "http://www.w3.org/Graphics/SVG/1.1/DTD/svg11.dtd">
<svg width="100%" height="100%" viewBox="0 0 551 400" version="1.1" xmlns="http://www.w3.org/2000/svg" xmlns:xlink="http://www.w3.org/1999/xlink" xml:space="preserve" xmlns:serif="http://www.serif.com/" style="fill-rule:evenodd;clip-rule:evenodd;stroke-linejoin:round;stroke-miterlimit:2;">
    <g id="forsest" transform="matrix(1.26197,0,0,1.26038,-17.7839,-67.5136)">
        <path d="M451.529,66.439C451.771,66.548 448.611,67.515 445.69,67.674C445.339,67.693 441.815,62.904 441.842,62.952C441.869,63 439.871,65.423 440.194,65.641C440.517,65.859 438.693,61.41 437.729,62.711C437.707,62.74 434.693,67.08 433.205,65.58C433.196,65.571 433.77,61.208 433.77,61.208C433.77,61.208 430.622,61.608 430.675,61.62C430.729,61.632 428.68,62.379 428.384,62.524C428.088,62.669 425.374,61.063 425.563,61.354C425.751,61.644 424.46,64.199 424.756,64.599C425.052,64.998 421.312,59.714 421.419,59.859C421.527,60.004 414.569,58.526 413.158,58.811C412.947,58.854 413.885,64.877 413.992,64.974C414.1,65.071 408.88,59.694 408.646,60.12C407.67,61.898 405.741,65.293 398.386,70.435C398.275,70.513 392.879,69.756 392.959,69.756C393.04,69.756 393.595,74.734 393.326,74.722C393.057,74.71 387.808,74.41 387.516,75.601C387.295,76.504 391.214,80.972 391.456,80.997C391.698,81.021 388.826,84.444 388.126,84.898C387.377,85.385 389.571,87.402 389.71,87.977C389.775,88.245 387.677,88.125 387.677,88.125C387.677,88.125 386.874,88.571 386.759,88.671C386.525,88.874 387.225,89.738 387.427,90.298C387.721,91.111 385.957,91.878 384.785,92.363C383.46,92.91 383.369,93.441 383.254,93.78C383.106,94.215 382.569,97.253 385.846,97.281C385.9,97.281 383.213,98.941 382.774,99.851C382.472,100.478 386.112,102.188 386.9,102.511C387.2,102.634 382.195,105.694 379.328,109.628C378.521,110.735 377.771,115.644 377.472,115.66C376.298,115.721 365.761,113.582 365.6,113.582C365.438,113.582 356.398,115.306 356.048,115.476C355.699,115.645 355.992,111.347 355.28,108.891C354.792,107.209 350.633,104.595 350.553,104.644C350.472,104.692 347.587,107.679 347.587,107.812C347.587,107.945 344.688,107.74 344.633,108.001C344.038,110.839 341.345,111.202 341.345,111.202C341.345,111.202 329.589,111.098 329.589,111.303C329.589,111.509 328.636,107.928 326.376,109.382C325.534,109.923 326.41,106.014 322.886,103.438C322.564,103.202 323.336,112.273 318.019,110.875C310.699,108.951 308.403,113.603 308.538,113.772C308.672,113.942 306.376,112.417 305.062,112.553C304.582,112.603 302.562,116.037 301.989,116.058C299.1,116.162 299.619,114.653 295.961,115.243C289.883,116.223 287.873,117.999 281.985,115.903C275.848,113.717 279.443,106.887 274.843,109.2C274.746,109.248 273.507,120.165 272.461,116.324C272.416,116.16 270.954,114.423 270.954,114.605C270.954,114.786 268.489,121.305 266.686,120.458C264.884,119.61 267.075,117.804 263.548,114.667C262.031,113.319 262.49,120.687 260.735,121.639C259.493,122.314 258.346,121.601 256.837,122.201C254.568,123.104 256.908,118.319 250.37,117.561C247.267,117.201 244.396,125.817 243.44,123.562C241.314,118.549 237.292,121.361 237.481,120.865C237.669,120.368 236.969,117.063 235.489,116.639C234.01,116.215 235.853,116.971 233.169,112.355C229.788,106.54 229.744,115.159 225.944,116.149C221.647,117.269 223.667,116.895 219.91,117.959C216.991,118.785 220.207,116.433 217.477,114.167C215.251,112.318 213.292,110.976 213.292,111.008C213.292,111.057 209.628,111.88 207.594,114.459C207.571,114.488 207.232,114.813 205.39,113.256C205.287,113.169 201.481,113.136 199.11,120.332C199.05,120.513 193.274,116.93 191.539,118.099C188.433,120.193 189.544,121.204 189.598,121.361C189.651,121.518 189.181,120.731 187.002,120.768C184.822,120.804 185.172,125.114 185.118,125.163C185.064,125.211 182.535,125.187 182.158,125.199C181.781,125.211 179.111,122.264 179.084,122.268C178.646,122.326 175.71,121.542 174.795,123.89C173.88,126.239 170.507,123.639 170.507,123.687C170.507,123.735 169.834,122.258 169.915,122.258C169.996,122.258 168.032,121.047 167.332,123.203C166.632,125.358 165.297,123.387 163.844,123.629C162.391,123.871 162.926,114.64 160.258,115.102C157.781,115.532 157.461,122.595 156.977,124.69C156.492,126.784 152.735,125.784 152.735,126.147C152.735,126.511 151.251,119.006 149.73,119.868C149.515,119.99 146.445,125.096 146.387,126.855C146.375,127.218 137.061,124.401 137.061,124.522C137.061,124.644 134.968,123.508 130.798,123.762C126.627,124.016 131.962,119.038 125.033,118.468C122.548,118.264 121.762,120.849 121.762,121.043C121.762,121.236 118.952,114.582 114.942,114.255C110.933,113.928 109.588,120.285 109.588,120.515C109.588,120.745 107.058,120.854 107.058,120.866C107.058,120.878 105.826,122.161 105.826,122.416C105.826,122.67 103.261,120.299 100.143,119.122C99.56,118.902 97.481,120.135 97.374,120.243C97.266,120.352 94.439,117.754 94.439,118.069C94.439,118.384 93.013,110.877 93.013,110.961C93.013,111.046 90.402,111.458 90.295,111.651C90.187,111.845 86.447,110.247 86.447,110.247L85.236,106.191C85.236,106.191 85.46,102.344 84.269,102.439C81.831,102.633 79.424,105.815 79.424,105.815L76.088,102.292C76.088,102.292 75.843,98.514 72.347,100.33C72.055,100.482 69.872,100.79 69.872,100.839C69.872,100.887 67.934,98.57 68.177,98.587C70.908,98.772 68.726,95.155 68.887,95.252C69.048,95.349 64.194,94.773 64.194,94.773C64.194,94.773 60.75,95.051 60.481,95.039C60.212,95.027 58.678,92.472 58.678,92.448C58.678,92.424 59.889,89.711 59.916,89.711C59.943,89.711 62.886,89.096 63.074,88.927C63.262,88.757 57.849,80.545 56.795,84.929C56.769,85.036 52.678,83.791 52.785,83.96C52.893,84.13 60.433,80.262 56.547,78.693C56.447,78.653 52.032,76.538 51.844,76.538C51.655,76.538 52.624,73.595 52.624,73.656C52.624,73.717 55.7,69.755 50.66,70.92C50.106,71.047 48.774,67.653 48.795,67.691C48.816,67.729 47.286,66.485 47.363,66.558C47.441,66.631 48.753,64.965 48.809,65.022C48.866,65.079 48.471,62.454 48.471,62.454C48.471,62.454 44.859,61.991 44.852,62.073C44.845,62.156 45.628,60.337 45.671,60.337C45.713,60.337 45.663,59.089 45.424,59.077C45.184,59.064 44.02,59.296 44.062,59.334C44.105,59.372 43.272,60.099 43.293,60.092C43.315,60.086 41.008,60.429 41.008,60.419C41.008,60.41 41.904,59.581 41.974,59.585C42.045,59.588 40.408,58.213 40.204,58.264C39.999,58.315 39.082,55.658 39.082,55.658C39.082,55.658 38.074,54.941 38.074,54.938C38.074,54.935 36.926,55.54 36.826,55.814C36.77,55.65 34.54,55.642 34.526,55.677C34.512,55.712 33.884,54.274 33.87,54.281C33.856,54.287 31.805,53.613 31.355,54.198C31.337,54.222 30.745,52.741 30.738,52.741C30.731,52.741 28.481,52.887 28.382,52.862C28.283,52.837 27.562,55.05 28.023,55.661C28.173,55.86 26.419,54.941 25.373,55.321C25.367,55.324 24.827,57.368 23.291,57.927C22.93,58.058 21.291,56.887 20.035,56.499C18.779,56.112 17.47,57.414 17.512,57.912C17.554,58.41 20.813,57.834 19.416,60.304C18.02,62.773 16.421,58.71 15.554,61.208C14.686,63.706 15.629,63.676 15.382,64.752C15.135,65.828 14.923,64.685 13.682,64.47L14.018,285.011C24.674,259.328 39.162,242.251 48.013,233.389C56.863,224.527 59.457,217.331 77.006,207.36C83.621,203.602 101.288,191.261 109.377,188.139C117.465,185.017 121.438,180.618 121.438,180.618L133.351,175.07C133.351,175.07 143.602,169.611 143.656,169.534C143.672,169.512 145.542,168.378 148.199,166.721C154.552,162.759 165.401,155.802 166.139,153.873C166.57,152.747 163.138,151.95 163.373,150.945C163.395,150.853 166.005,148.42 165.449,147.667C163.923,145.6 158.955,143.929 158.804,143.827C158.476,143.606 158.393,142.766 163.006,141.961C163.123,141.94 168.307,141.102 168.365,141.086C168.423,141.071 173.23,140.457 173.23,140.457C173.23,140.457 184.289,139.051 184.36,139.055C189.418,139.312 193.61,139.385 193.572,139.405C191.054,140.683 186.024,141.42 184.828,144.697C191.763,145.995 202.487,149.737 202.233,149.539C201.979,149.342 218.877,153.836 231.819,158.806C240.98,162.324 258.074,161.26 258.213,161.281C258.352,161.302 262.772,167.828 265.712,167.12C266.062,167.036 277.945,172.968 278.272,173.219C280.28,174.766 288.887,180.349 289.303,180.183C289.719,180.017 301.979,186.147 302.36,186.22C302.742,186.293 305.989,186.237 305.931,186.211C305.874,186.185 314.84,192.225 314.84,192.225C314.84,192.225 320.367,196.442 320.332,196.411C320.297,196.38 328.637,202.635 328.625,202.672C328.614,202.708 334.206,208.001 334.206,207.845C334.206,207.689 355.497,227.597 355.772,227.597C356.048,227.597 380.721,241.535 381.807,241.977C388.214,244.588 451.094,286.628 451.094,286.628C451.094,286.628 451.287,66.33 451.529,66.439Z"/>
    </g>
</svg>
